<svg width="33" height="27" xmlns="http://www.w3.org/2000/svg">

 <g>
  <title>background</title>
  <rect fill="none" id="canvas_background" height="402" width="582" y="-1" x="-1"/>
 </g>
 <g>
  <title>Layer 1</title>
  <circle fill="#ffffff" id="svg_2" r="1" cy="7" cx="5"/>
  <rect fill="#ffffff" id="svg_3" y="4.5" x="10" width="1" height="4"/>
  <path fill="#ffffff" id="svg_4" d="m26.5,16.354l0,-1.819l-1.833,-1.222l-1.418,2.836c-0.732,0.297 -1.249,1.013 -1.249,1.851c0,0.453 0.156,0.867 0.411,1.202l-0.343,4.798l3.007,0l0.327,-4.576c0.368,-0.362 0.598,-0.866 0.598,-1.424c0,-0.175 -0.03,-0.341 -0.072,-0.503l0.572,-1.143zm-2.5,2.646c-0.551,0 -1,-0.449 -1,-1s0.449,-1 1,-1s1,0.449 1,1s-0.449,1 -1,1z"/>
  <polygon fill="#ffffff" id="svg_5" points="26.282,9 32,9 32,3 27,1.35 26,0 19,0 18,1.35 14,3 14,9 18.718,9   "/>
  <path fill="#ffffff" id="svg_6" d="m8,9l1,0l0,-5l-4,0l-3,2l0,1.5l-1.75,0c-0.138,0 -0.25,0.112 -0.25,0.25s0.112,0.25 0.25,0.25l1.75,0l0,1l-1.5,0c-0.276,0 -0.5,0.224 -0.5,0.5s0.224,0.5 0.5,0.5l6.5,0l1,-1zm-3,-0.5c-0.828,0 -1.5,-0.672 -1.5,-1.5s0.672,-1.5 1.5,-1.5s1.5,0.672 1.5,1.5s-0.672,1.5 -1.5,1.5z"/>
  <path fill="#ffffff" id="svg_7" d="m31.82,24l-1.079,-5.034c0.16,-0.288 0.259,-0.614 0.259,-0.966c0,-0.504 -0.193,-0.958 -0.5,-1.31l0,-2.44l1.214,-4.25l-15.714,0c-1.105,0 -2,0.895 -2,2c0,0.277 0.057,0.541 0.159,0.781l-1.167,3.5c-0.591,0.348 -0.992,0.984 -0.992,1.719c0,0.261 0.053,0.508 0.144,0.736l-1.88,5.264l3.186,0l0.696,-1.95l2.572,1.24l1.301,-2.704l-2.582,-1.216c0.344,-0.357 0.563,-0.834 0.563,-1.37c0,-0.277 -0.057,-0.541 -0.159,-0.781l0.951,-2.853l2.958,-2.366l4.75,0l3,2l0,2.531l0,0.159c-0.307,0.352 -0.5,0.806 -0.5,1.31c0,0.671 0.333,1.262 0.841,1.624l0.917,4.376l3.062,0zm-17.82,-5c-0.551,0 -1,-0.449 -1,-1s0.449,-1 1,-1s1,0.449 1,1s-0.449,1 -1,1zm2,-6c-0.551,0 -1,-0.449 -1,-1s0.449,-1 1,-1s1,0.449 1,1s-0.449,1 -1,1zm13,-2c0.551,0 1,0.449 1,1s-0.449,1 -1,1s-1,-0.449 -1,-1s0.449,-1 1,-1zm-1,7c0,-0.551 0.449,-1 1,-1s1,0.449 1,1s-0.449,1 -1,1s-1,-0.449 -1,-1z"/>
  <rect fill="#ffffff" id="svg_8" y="4.5" x="12" width="1" height="4"/>
  <polygon fill="#ffffff" id="svg_9" points="19.731,20.486 19.01,20.832 17.384,24.211 17.564,24.991 18.916,25.642 21.083,21.136   "/>
  <polygon fill="#ffffff" id="svg_10" points="32.375,25 28.625,25 28,25.5 28,27 33,27 33,25.5   "/>
  <polygon fill="#ffffff" id="svg_11" points="21.625,25 21,25.5 21,27 26,27 26,25.5 25.375,25   "/>
  <polygon fill="#ffffff" id="svg_12" points="9.625,25 9,25.5 9,27 14,27 14,25.5 13.375,25   "/>
  <path fill="#ffffff" id="svg_13" d="m9.546,19.915l0.955,0.449l0.588,-1.647c-0.059,-0.236 -0.089,-0.476 -0.089,-0.717c0,-0.917 0.432,-1.785 1.148,-2.35l1.084,-3.253l-4.207,3.606c-0.008,0 -0.016,-0.003 -0.025,-0.003c-1.105,0 -2,0.895 -2,2s0.895,2 2,2c0.191,0 0.371,-0.035 0.546,-0.085zm-1.546,-1.915c0,-0.551 0.449,-1 1,-1s1,0.449 1,1s-0.449,1 -1,1s-1,-0.449 -1,-1z"/>
 </g>
</svg>